<svg width="804" height="998" viewBox="0 0 804 998" fill="none" xmlns="http://www.w3.org/2000/svg">
<mask id="mask0_23_223" style="mask-type:alpha" maskUnits="userSpaceOnUse" x="0" y="-2" width="804" height="1000">
<rect y="-2" width="804" height="1000" fill="#C4C4C4"/>
</mask>
<g mask="url(#mask0_23_223)">
<path d="M999.506 725.455L962.264 986.384H15.4842L-12.4769 787.347C-13.9965 776.498 -11.8672 765.453 -6.42266 755.942C-0.978124 746.431 7.47404 738.992 17.6096 734.789L101.635 699.978V616.568C101.643 604.673 105.944 593.178 113.75 584.188C121.556 575.199 132.346 569.316 144.143 567.616L164.027 564.717L197.326 452.083C200.377 441.87 206.649 432.913 215.21 426.544C223.77 420.174 234.162 416.732 244.841 416.73H586.183C598.678 416.741 610.708 421.46 619.867 429.941C629.027 438.423 634.641 450.042 635.587 462.476L798.158 479.611C809.835 480.846 820.694 486.176 828.803 494.652C836.911 503.129 841.743 514.201 842.438 525.9L849.121 638.511L964.012 670.894C975.534 674.174 985.477 681.508 992.002 691.538C998.527 701.568 1001.19 713.616 999.506 725.455Z" fill="#DAE8EF"/>
<path d="M72.1626 779.286L101.73 986.384H853.325L875.524 828.474C876.721 819.859 875.025 811.091 870.702 803.539C866.378 795.988 859.67 790.078 851.625 786.734L784.934 759.111V692.836C784.941 683.406 781.543 674.289 775.362 667.155C769.182 660.022 760.633 655.35 751.281 653.995L735.506 651.638L709.033 562.243C706.628 554.106 701.647 546.967 694.835 541.893C688.023 536.82 679.747 534.086 671.248 534.102H400.422C390.484 534.105 380.916 537.862 373.64 544.616C366.363 551.371 361.918 560.624 361.196 570.515L232.16 584.114C222.89 585.096 214.269 589.327 207.83 596.055C201.392 602.782 197.553 611.571 196.996 620.858L191.8 710.206L100.502 735.873C91.302 738.442 83.3532 744.264 78.1387 752.252C72.9242 760.241 70.8 769.85 72.1626 779.286Z" fill="#CCD9E2"/>
<path d="M692.241 909.22C692.247 898.429 688.361 887.996 681.292 879.829C674.224 871.663 664.446 866.309 653.747 864.746L635.681 862.106L605.359 759.795C602.627 750.487 596.941 742.315 589.156 736.509C581.371 730.703 571.908 727.577 562.189 727.6H252.067C240.687 727.573 229.723 731.861 221.392 739.598C213.061 747.334 207.987 757.94 207.197 769.269L72.9175 783.411L101.894 986.384H695.618L692.218 984.993L692.241 909.22Z" fill="#BCCED8"/>
<path d="M414.072 241.191H183.7V455.783H414.072V241.191Z" fill="#112B46"/>
<g style="mix-blend-mode:screen">
<g style="mix-blend-mode:screen">
<path d="M414.072 241.191H183.7V263.887H414.072V241.191Z" fill="#1D262D"/>
</g>
</g>
<path d="M364.289 252.716C364.293 253.542 364.052 254.351 363.596 255.04C363.139 255.729 362.488 256.267 361.725 256.586C360.961 256.906 360.12 256.992 359.308 256.834C358.495 256.675 357.748 256.28 357.161 255.697C356.574 255.115 356.174 254.372 356.011 253.562C355.848 252.752 355.929 251.912 356.245 251.148C356.56 250.385 357.096 249.732 357.784 249.272C358.472 248.813 359.281 248.568 360.109 248.568C361.213 248.567 362.273 249.004 363.056 249.781C363.839 250.558 364.282 251.613 364.289 252.716Z" fill="#606BF1"/>
<path d="M381.694 252.716C381.699 253.542 381.457 254.351 381.001 255.04C380.545 255.729 379.893 256.267 379.13 256.586C378.367 256.906 377.525 256.992 376.713 256.834C375.901 256.675 375.154 256.28 374.567 255.697C373.98 255.115 373.579 254.372 373.416 253.562C373.253 252.752 373.334 251.912 373.65 251.148C373.966 250.385 374.501 249.732 375.189 249.272C375.877 248.813 376.686 248.568 377.514 248.568C378.618 248.567 379.678 249.004 380.461 249.781C381.245 250.558 381.688 251.613 381.694 252.716Z" fill="#FBD15B"/>
<path d="M397.847 253.258C397.847 254.084 397.601 254.891 397.141 255.578C396.68 256.264 396.026 256.799 395.261 257.114C394.496 257.429 393.654 257.51 392.843 257.347C392.031 257.184 391.286 256.785 390.703 256.199C390.119 255.613 389.723 254.868 389.564 254.057C389.406 253.246 389.492 252.407 389.812 251.645C390.132 250.883 390.671 250.233 391.362 249.778C392.052 249.322 392.863 249.081 393.69 249.086C394.238 249.086 394.781 249.194 395.286 249.404C395.792 249.614 396.252 249.922 396.638 250.309C397.024 250.697 397.33 251.157 397.537 251.663C397.745 252.169 397.85 252.711 397.847 253.258Z" fill="#FF8578"/>
<path d="M257.286 284.981H224.649V287.715H257.286V284.981Z" fill="#FF8578"/>
<path d="M295.59 284.981H262.953V287.715H295.59V284.981Z" fill="#FBD15B"/>
<path d="M285.364 299.735H234.756V302.469H285.364V299.735Z" fill="#606BF1"/>
<path d="M319.443 299.735H293.725V302.469H319.443V299.735Z" fill="#FF8578"/>
<path d="M274.526 314.489H252.303V317.223H274.526V314.489Z" fill="#FBD15B"/>
<path d="M361.101 314.489H287.373V317.223H361.101V314.489Z" fill="#FBD15B"/>
<path d="M353.827 329.219H269.566V331.953H353.827V329.219Z" fill="#606BF1"/>
<path d="M274.432 343.973H248.501V346.707H274.432V343.973Z" fill="#FF8578"/>
<path d="M311.46 343.973H285.53V346.707H311.46V343.973Z" fill="#606BF1"/>
<path d="M262.364 420.454H224.649V423.188H262.364V420.454Z" fill="#FF8578"/>
<path d="M313.302 420.454H275.588V423.188H313.302V420.454Z" fill="#FBD15B"/>
<path d="M362.873 420.454H325.158V423.188H362.873V420.454Z" fill="#FF8578"/>
<path d="M308.484 405.723H234.756V408.457H308.484V405.723Z" fill="#606BF1"/>
<path d="M393.69 405.723H319.962V408.457H393.69V405.723Z" fill="#FF8578"/>
<path d="M325.465 390.969H252.303V393.703H325.465V390.969Z" fill="#FF8578"/>
<path d="M352.198 390.969H331.841V393.703H352.198V390.969Z" fill="#FBD15B"/>
<path d="M275.069 376.239H247.533V378.973H275.069V376.239Z" fill="#FBD15B"/>
<path d="M317.223 376.239H289.687V378.973H317.223V376.239Z" fill="#606BF1"/>
<path d="M362.47 376.239H334.934V378.973H362.47V376.239Z" fill="#FF8578"/>
<path d="M318.049 361.485H279.437V364.219H318.049V361.485Z" fill="#FBD15B"/>
<path d="M264.866 361.485H226.254V364.219H264.866V361.485Z" fill="#606BF1"/>
<path d="M206.819 282.365H203.3V285.877H206.819V282.365Z" fill="#F9FBFC"/>
<path d="M206.771 410.932H203.276V403.861H206.771V410.932ZM206.771 393.067H203.276V385.996H206.771V393.067ZM206.771 375.202H203.276V368.131H206.771V375.202ZM206.771 357.337H203.276V350.266H206.771V357.337ZM206.771 339.472H203.276V332.401H206.771V339.472ZM206.771 321.607H203.276V314.536H206.771V321.607ZM206.771 303.742H203.276V296.671H206.771V303.742Z" fill="#F9FBFC"/>
<path d="M206.819 421.632H203.3V425.144H206.819V421.632Z" fill="#F9FBFC"/>
<path d="M653.345 195.609H463.64V312.321H653.345V195.609Z" fill="#FF8578"/>
<path d="M537.393 242.558L514.84 252.174L537.393 261.601L534.441 268.412L507.377 256.345V248.002L534.441 235.864L537.393 242.558Z" fill="#F9FBFC"/>
<path d="M570.597 220.309L554.207 283.119L546.414 281.281L562.945 218.565L570.597 220.309Z" fill="#F9FBFC"/>
<path d="M609.775 248.002V256.369L582.688 268.436L579.736 261.625L602.242 252.197L579.736 242.581L582.688 235.911L609.775 248.002Z" fill="#F9FBFC"/>
<path d="M754.871 421.703H646.829V498.537H754.871V421.703Z" fill="#616AF2"/>
<path d="M692.052 438.295C688.557 438.295 687.329 439.214 687.329 441.807V453.379C687.329 457.881 685.463 459.271 682.323 460.143C685.463 460.968 687.329 462.359 687.329 466.813V478.362C687.329 480.954 688.557 481.897 692.052 481.897V486.964C683.267 486.964 680.788 484.16 680.788 478.315V467.355C680.788 464.221 679.961 463.019 677.104 463.019V457.221C679.961 457.221 680.788 455.972 680.788 452.813V441.877C680.788 435.985 683.149 433.228 692.052 433.228V438.295Z" fill="#F1F2F2"/>
<path d="M720.958 441.877V452.813C720.958 455.972 721.785 457.221 724.713 457.221V463.019C721.785 463.019 720.958 464.221 720.958 467.355V478.315C720.958 484.16 718.478 486.964 709.693 486.964V481.897C713.118 481.897 714.417 480.954 714.417 478.362V466.813C714.293 466.044 714.327 465.257 714.515 464.501C714.703 463.745 715.042 463.034 715.512 462.411C715.981 461.789 716.571 461.267 717.248 460.877C717.924 460.488 718.672 460.238 719.447 460.143C716.306 459.271 714.417 457.786 714.417 453.379V441.807C714.417 439.214 713.259 438.295 709.693 438.295V433.228C718.478 433.228 720.958 435.985 720.958 441.877Z" fill="#F1F2F2"/>
<path d="M231.592 212.343H110.372V293.254H231.592V212.343Z" fill="#FF8578"/>
<path d="M150.495 235.581C147.489 239.279 145.915 243.933 146.061 248.693C146.207 253.453 148.064 258.002 151.292 261.509C154.52 265.016 158.904 267.248 163.643 267.797C168.383 268.346 173.163 267.176 177.11 264.5L189.839 277.203C190.099 277.454 190.446 277.594 190.807 277.594C191.169 277.594 191.516 277.454 191.775 277.203L195.365 273.621C195.495 273.496 195.598 273.346 195.669 273.18C195.74 273.013 195.776 272.835 195.776 272.655C195.776 272.474 195.74 272.296 195.669 272.13C195.598 271.964 195.495 271.814 195.365 271.688L182.636 258.985C185.599 254.725 186.773 249.477 185.907 244.364C185.042 239.251 182.205 234.68 178.005 231.627C173.805 228.575 168.575 227.285 163.433 228.032C158.292 228.78 153.648 231.507 150.495 235.628V235.581ZM176.071 257.854C174.098 259.853 171.574 261.221 168.819 261.785C166.065 262.348 163.205 262.08 160.603 261.017C158.001 259.953 155.775 258.14 154.209 255.81C152.642 253.48 151.806 250.737 151.806 247.931C151.806 245.125 152.642 242.382 154.209 240.052C155.775 237.722 158.001 235.91 160.603 234.846C163.205 233.782 166.065 233.515 168.819 234.078C171.574 234.641 174.098 236.009 176.071 238.009C178.681 240.654 180.145 244.218 180.145 247.931C180.145 251.644 178.681 255.208 176.071 257.854Z" fill="#F9FBFC"/>
<path d="M584.222 462.288C583.939 464.975 580.278 492.927 551.538 492.927C521.357 492.927 526.411 463.089 526.411 463.089V462.901C529.517 462.263 532.704 462.112 535.857 462.453V448.312L570.124 429.174H571.375V462.17C575.65 461.77 579.955 461.81 584.222 462.288Z" fill="url(#paint0_radial_23_223)"/>
<path d="M567.574 366.128C572.74 371.377 576.31 377.98 577.87 385.171C581.153 399.666 578.059 414.986 573.856 428.938C573.246 431.364 572.223 433.668 570.833 435.75C569.728 437.151 568.468 438.424 567.078 439.544C560.985 444.823 554.9 450.126 548.823 455.453C544.69 459.035 519.327 462.052 514.486 458.588C495.829 445.271 492.216 406.737 495.971 386.962C502.158 354.249 544.289 342.559 567.574 366.128Z" fill="url(#paint1_radial_23_223)"/>
<path d="M557.088 407.986C557.348 404.851 560.583 401.387 563.842 403.437C567.101 405.488 566.416 411.144 565.023 414.232C563.936 416.588 560.3 419.275 557.773 417.036C555.694 415.151 558.93 412.935 559.048 411.215C559.166 409.494 556.025 408.575 557.3 406.902" fill="#F7B094"/>
<path d="M557.679 422.551C559.908 422.907 562.191 422.472 564.133 421.323C566.074 420.173 567.551 418.381 568.306 416.258C569.22 412.959 569.658 409.546 569.605 406.124C570.758 409.73 571.049 413.556 570.455 417.295C569.558 424.177 567.149 430.753 561.741 430.824C556.333 430.894 557.679 422.551 557.679 422.551Z" fill="#F7B094"/>
<path d="M553.522 417.696C553.405 417.76 553.277 417.8 553.145 417.814C551.019 418.097 550.193 415.575 549.886 413.972C549.339 410.25 549.086 406.491 549.13 402.73C549.199 401.721 549.087 400.707 548.799 399.737C547.619 397.026 544.454 395.282 543.486 392.478C542.376 389.225 545.54 385.996 544.289 382.437C542.352 376.993 535.362 375.744 530.285 375.791C522.721 376.149 515.193 377.039 507.755 378.454C499.844 379.68 489.713 380.811 482.722 375.838C474.315 369.828 470.915 354.108 477.078 345.505C478.989 343.225 481.377 341.39 484.073 340.128C486.77 338.866 489.71 338.208 492.688 338.199C498.71 338.058 503.811 341.64 509.337 343.455C513.73 344.893 518.004 340.674 522.114 339.872C527.285 338.835 529.482 344.468 534.063 344.586C538.645 344.704 542.872 341.263 547.193 340.462C555.813 338.906 555.317 347.532 561.103 350.502C564.693 352.34 569.345 351.209 572.911 353.094C575.674 354.509 576.052 356.983 576.666 359.812C576.967 362.357 577.416 364.884 578.012 367.377C578.967 369.278 580.273 370.981 581.861 372.397C583.288 374.212 584.369 376.273 585.05 378.478C586.643 383.467 587.189 388.73 586.655 393.939C585.57 402.655 583.388 411.199 580.161 419.37C578.272 424.672 577.587 430.211 574.682 435.231C573.903 436.575 570.431 440.511 569.156 437.588C568.928 436.938 568.863 436.242 568.967 435.561C569.345 430.07 574.446 394.811 561.08 399.053C559.738 399.534 558.522 400.312 557.524 401.328C556.526 402.345 555.772 403.573 555.317 404.922C554.232 408.053 553.829 411.38 554.137 414.679C554.137 415.174 554.137 415.646 554.137 416.141C554.182 416.431 554.15 416.728 554.042 417.002C553.934 417.275 553.754 417.515 553.522 417.696Z" fill="#3D3D7A"/>
<path d="M535.834 459.177C551.067 456.82 561.103 444.729 561.103 444.729C559.676 450.639 556.342 455.918 551.614 459.75C546.886 463.583 541.026 465.759 534.937 465.941L535.834 459.177Z" fill="#F7B094"/>
<path d="M578.767 947.33H564.597C563.577 947.33 562.597 946.926 561.876 946.205C561.154 945.485 560.748 944.508 560.748 943.489V734.835H582.545V943.489C582.546 944.495 582.15 945.462 581.443 946.18C580.737 946.899 579.776 947.312 578.767 947.33Z" fill="#0A2033"/>
<path d="M616.718 755.977H526.718C522.766 755.977 518.976 754.41 516.181 751.621C513.387 748.832 511.817 745.049 511.817 741.105V737.829H631.62V741.105C631.62 745.049 630.05 748.832 627.255 751.621C624.461 754.41 620.67 755.977 616.718 755.977Z" fill="#30475E"/>
<path d="M578.767 974.764H564.597C563.577 974.764 562.597 974.36 561.876 973.639C561.154 972.919 560.748 971.942 560.748 970.923V922.583H582.545V970.946C582.539 971.949 582.141 972.909 581.435 973.623C580.729 974.336 579.771 974.746 578.767 974.764Z" fill="#0A2033"/>
<path d="M458.657 962.132C458.657 964.649 459.405 967.109 460.806 969.202C462.208 971.295 464.199 972.927 466.53 973.89C468.86 974.853 471.424 975.105 473.898 974.614C476.371 974.123 478.644 972.911 480.427 971.131C482.211 969.351 483.425 967.083 483.917 964.615C484.409 962.146 484.157 959.587 483.192 957.261C482.226 954.936 480.592 952.948 478.495 951.549C476.398 950.151 473.932 949.405 471.41 949.405C468.028 949.405 464.784 950.745 462.392 953.132C460.001 955.519 458.657 958.756 458.657 962.132Z" fill="#0A2033"/>
<path d="M659.297 962.132C659.297 964.649 660.045 967.109 661.446 969.202C662.847 971.295 664.839 972.927 667.169 973.89C669.499 974.853 672.064 975.105 674.537 974.614C677.011 974.123 679.283 972.911 681.067 971.131C682.85 969.351 684.065 967.083 684.557 964.615C685.049 962.146 684.796 959.587 683.831 957.261C682.866 954.936 681.231 952.948 679.134 951.549C677.037 950.151 674.572 949.405 672.049 949.405C668.667 949.405 665.424 950.745 663.032 953.132C660.64 955.519 659.297 958.756 659.297 962.132Z" fill="#0A2033"/>
<path d="M549.79 944.62H593.621V906.392H549.79V944.62Z" fill="#30475E"/>
<path d="M684.778 953.623H458.634V949.192C458.634 945.598 460.064 942.151 462.611 939.61C465.157 937.068 468.611 935.64 472.213 935.64H671.199C674.801 935.64 678.255 937.068 680.801 939.61C683.348 942.151 684.778 945.598 684.778 949.192V953.623Z" fill="#FBD15B"/>
<path d="M571.706 760.266H564.149V902.974H571.706V760.266Z" fill="#30475E"/>
<path d="M657.337 583.619C656.097 583.577 654.862 583.795 653.711 584.257C652.561 584.72 651.519 585.417 650.654 586.305C649.789 587.192 649.12 588.251 648.689 589.412C648.258 590.573 648.074 591.811 648.151 593.047C649.638 618.972 644.136 682.136 619.977 703.678C590.41 730.051 506.621 726.469 506.621 726.469C506.621 726.469 492.782 743.415 520.46 747.162C548.138 750.909 626.094 748.435 644.963 730.852C663.218 713.836 674.057 669.268 665.91 591.798C665.689 589.648 664.697 587.651 663.118 586.175C661.538 584.698 659.477 583.84 657.314 583.761L657.337 583.619Z" fill="#FBD15B"/>
<path d="M500.364 902.974L510.329 925.647L479.794 939.011L469.805 916.267L500.364 902.974Z" fill="url(#paint2_radial_23_223)"/>
<path d="M644.325 651.026C642.436 654.796 506.811 651.026 493.987 652.275C493.987 652.275 410.978 691.799 399.075 728.826C397.79 733.559 397.39 738.489 397.895 743.367C401.224 795.478 460.689 920.274 460.689 920.274L469.805 916.267L500.364 902.974L504.709 901.089C504.709 901.089 457.477 760.832 466.924 753.29C476.37 745.748 583.255 726.94 620.426 716.923C657.597 706.907 644.325 651.026 644.325 651.026Z" fill="#616AF2"/>
<path d="M383.984 908.796L386.37 942.852H353.071L350.663 908.725L383.984 908.796Z" fill="url(#paint3_radial_23_223)"/>
<path d="M493.326 651.026L492.121 651.568C492.121 651.568 353.19 671.106 330.519 709.947C315.782 735.26 344.263 920.156 344.263 920.156L393.431 920.274C393.431 920.274 386.086 766.253 388.543 757.65C391.282 747.869 396.005 744.334 397.989 743.32C397.484 738.442 397.884 733.512 399.17 728.778C410.978 691.752 494.081 652.228 494.081 652.228C493.712 651.914 493.448 651.494 493.326 651.026Z" fill="#616AF2"/>
<path d="M627.534 522.954L618.23 524.226C616.562 541.084 613.953 557.836 610.413 574.404L494.318 618.383L492.735 626.773H491.295C491.295 628.518 491.295 630.214 491.413 631.794C491.673 641.457 492.31 648.433 493.326 651.214C493.433 651.666 493.671 652.076 494.011 652.393C497.175 654.962 538.219 650.036 582.617 666.251C621.111 680.392 642.696 695.759 643.688 693.685C655.802 668.466 633.769 569.949 627.534 522.954Z" fill="#FF8578"/>
<path d="M615.325 580.32C612.232 595.168 604.249 624.676 588.545 628.635C568.046 633.844 528.443 633.561 491.319 631.581C491.319 630.002 491.319 628.305 491.201 626.561H492.641L494.224 618.171L610.319 574.192C613.858 557.624 616.468 540.872 618.135 524.014C618.135 524.014 618.135 524.179 618.135 524.438C618.49 528.469 620.048 558.495 615.325 580.32Z" fill="#F4675D"/>
<path d="M499.064 486.045C496.985 489.793 493.986 530.095 492.38 570.091L468.646 547.984C478.707 528.469 499.064 486.045 499.064 486.045Z" fill="#F4675D"/>
<path d="M484.824 599.175C464.798 602.639 446.378 605.632 446.378 605.632V606.599C424.061 588.828 390.148 538.485 390.148 538.485C390.148 538.485 400.303 526.324 402.83 523.119C403.208 522.624 458.516 560.616 461.35 560.286C462.058 560.286 464.892 555.243 468.671 547.866L492.405 569.973C492.027 579.4 491.72 588.993 491.531 597.973C489.287 598.42 487.044 598.797 484.824 599.175Z" fill="#F7B094"/>
<path d="M446.378 605.656L445.882 622.154H385.52C385.52 622.154 391.518 598.585 407.861 598.585C424.203 598.585 430.484 607.211 430.484 607.211L446.378 605.656Z" fill="url(#paint4_radial_23_223)"/>
<path d="M402.358 522.765L402.807 523.142C400.28 526.347 390.125 538.509 390.125 538.509L383.891 534.054C381.572 535.282 378.981 535.908 376.357 535.875C373.732 535.842 371.158 535.151 368.871 533.866C360.464 529.317 365.659 518.428 366.108 517.156C364.478 517.603 354.3 525.735 352.812 524.886C351.324 524.038 350.049 521.139 361.337 510.038C372.626 498.937 387.882 513.196 388.354 513.196L402.358 522.765Z" fill="#F7B094"/>
<path d="M370.122 531.98C370.122 531.98 367.76 536.529 372.011 538.509C377.209 540.575 382.759 541.615 388.353 541.573C391.967 541.219 394.848 536.176 394.848 536.176L383.89 525.923H375.152L370.122 531.98Z" fill="#F7B094"/>
<path d="M369.461 534.219C370.123 531.98 376.334 533.182 380.183 533.277C383.017 533.277 384.575 532.593 385.449 530.425C386.323 528.257 382.214 524.839 381.411 525.923C380.608 527.007 382.899 528.516 382.946 529.954C382.993 531.391 378.908 531.863 375.72 531.863C372.825 531.976 369.94 532.251 367.076 532.687L369.461 534.219Z" fill="#E8987C"/>
<path d="M604.509 595.781L545.47 574.875C541.148 582.912 536.543 589.016 531.985 590.124C525.089 591.939 508.369 595.074 491.578 597.996C489.359 598.42 487.115 598.797 484.895 599.198C464.869 602.663 446.449 605.656 446.449 605.656V606.622V607.259L446 622.154V625.925C461.132 625.344 476.284 625.588 491.39 626.656C526.813 629.177 572.51 630.686 587.647 623.568C594.732 620.221 600.4 609.215 604.863 595.663L604.509 595.781Z" fill="url(#paint5_radial_23_223)"/>
<path d="M545.374 574.875L604.508 595.781L601.816 603.653L543.296 578.599L545.374 574.875Z" fill="#F7B094"/>
<path d="M545.398 574.875C541.076 582.912 536.471 589.016 531.913 590.124C525.018 591.939 508.298 595.074 491.507 597.996C491.696 589.016 492.003 579.518 492.381 569.997C493.986 529.93 496.986 489.698 499.064 485.951C502.441 479.658 511.722 465.988 526.364 462.854V463.042C526.364 463.042 521.357 492.88 551.562 492.88C580.302 492.88 583.963 464.975 584.246 462.241C599.029 463.891 621.701 471.291 624.841 500.964C625.479 506.833 626.376 514.351 627.557 522.906L618.229 524.179C618.229 524.179 614.451 565.99 604.768 595.616L604.532 595.733L545.398 574.875Z" fill="#FF8578"/>
<g style="mix-blend-mode:screen">
<path d="M544.76 569.431L568.376 512.395L550.971 571.741L544.76 569.431Z" fill="#6D4B35"/>
</g>
<path d="M584.223 462.288H571.353C571.353 462.288 553.027 482.345 541.266 482.345C529.506 482.345 535.835 462.406 535.835 462.406H530.096C522.126 462.412 514.438 465.343 508.493 470.641C502.549 475.939 498.765 483.234 497.86 491.136C497.648 492.998 497.435 494.765 497.27 496.392C496.018 508.53 545.281 517.344 545.281 517.344L570.668 515.93L586.065 486.045L589.135 473.742L584.223 462.288Z" fill="#FF8578"/>
<path d="M428.949 965.101C430.106 971.253 434.357 975.613 440.521 974.529L522.467 959.28C523.463 959.091 524.342 958.516 524.913 957.681C525.484 956.846 525.7 955.819 525.514 954.825L524.168 947.566C524.168 947.566 437.97 962.626 428.925 965.125L428.949 965.101Z" fill="#F1F2F2"/>
<path d="M453.344 944.526L455.87 942.31L460.594 938.021C461.42 937.29 462.247 936.56 462.955 935.853L467.112 932.152L469.638 929.795L472.992 926.802C473.323 926.526 473.741 926.375 474.173 926.375C474.604 926.375 475.022 926.526 475.353 926.802C478.731 929.63 489.523 936.088 509.337 923.903C509.559 923.769 509.806 923.681 510.063 923.643C510.32 923.606 510.582 923.621 510.833 923.687C511.084 923.753 511.319 923.869 511.525 924.027C511.73 924.186 511.902 924.384 512.029 924.61L523.837 947.472C523.837 947.472 437.639 962.532 428.594 965.031C431.9 963.216 442.929 953.718 453.344 944.526Z" fill="#4C54BF"/>
<path d="M299.889 964.3C300.054 970.546 303.549 975.518 309.807 975.377L393.148 973.35C393.65 973.338 394.145 973.227 394.605 973.024C395.064 972.821 395.479 972.529 395.825 972.165C396.172 971.802 396.443 971.374 396.624 970.906C396.805 970.438 396.891 969.939 396.879 969.438L396.69 962.061C396.69 962.061 309.312 963.216 299.865 964.253L299.889 964.3Z" fill="#F1F2F2"/>
<path d="M327.212 947.849L330.046 946.081L335.501 942.617L338.217 940.873L342.94 937.856L345.798 935.994L349.576 933.637C349.945 933.404 350.385 933.309 350.818 933.369C351.251 933.43 351.647 933.641 351.938 933.967C354.796 937.29 364.525 945.398 385.945 936.512C386.184 936.407 386.442 936.354 386.703 936.355C386.964 936.356 387.222 936.411 387.46 936.518C387.698 936.624 387.911 936.78 388.086 936.974C388.26 937.168 388.391 937.396 388.472 937.644L396.69 962.132C396.69 962.132 309.312 963.286 299.865 964.323C303.101 962.909 315.404 955.273 327.212 947.849Z" fill="#4C54BF"/>
<path d="M240.59 625.901L196.098 507.445H322.797L367.313 625.901H240.59Z" fill="#ABB5BA"/>
<path d="M375.153 625.901H367.312L322.796 507.445L329.905 507.752L371.091 614.989L375.153 625.901Z" fill="#8495A0"/>
<path d="M372.696 625.925H456.414L456.201 618.454H370.972" fill="#8495A0"/>
<path d="M729.389 648.504H709.221V979.007H729.389V648.504Z" fill="#8495A0"/>
<path d="M619.977 648.504H599.809V979.007H619.977V648.504Z" fill="#ABB5BA"/>
<path d="M269.424 648.504H249.256V979.007H269.424V648.504Z" fill="#8495A0"/>
<path d="M160.013 648.504H139.845V979.007H160.013V648.504Z" fill="#ABB5BA"/>
<path d="M749.556 625.901H120.527C115.114 625.901 110.726 630.281 110.726 635.682V639.972C110.726 645.374 115.114 649.753 120.527 649.753H749.556C754.969 649.753 759.357 645.374 759.357 639.972V635.682C759.357 630.281 754.969 625.901 749.556 625.901Z" fill="#141B56"/>
<path d="M217.258 519.89L219.407 525.664H244.652L242.503 519.89H217.258Z" fill="#8495A0"/>
<path d="M468.623 547.866L466.829 551.377L492.357 577.704V569.973L468.623 547.866Z" fill="#E8987C"/>
<path d="M990.013 974.764H-30V998.003H990.013V974.764Z" fill="#A5B7C6"/>
<path d="M828.292 802.36C824.254 821.992 825.506 855.413 799.528 860.786C792.444 862.2 785.76 857.369 781.699 851.807C776.361 844.548 775.086 829.157 775.181 820.366C775.181 813.296 777.542 805.612 778.392 798.589C779.219 791 779.904 783.363 780.754 775.774C783.942 748.435 798.253 725.502 822.483 711.833C824.372 720.812 828.647 728.331 832.402 737.051C834.159 741.001 835.627 745.074 836.794 749.236C838.778 756.542 836.369 763.919 834.598 770.896C831.953 781.148 830.465 791.919 828.292 802.36Z" fill="url(#paint6_linear_23_223)"/>
<path d="M795.064 861.376C795.229 859.726 795.442 858.076 795.654 856.426C798.836 856.082 801.897 855.018 804.605 853.315C809.008 850.862 812.993 847.728 816.412 844.029C816.601 843.84 816.271 843.534 816.082 843.699C812.626 846.793 808.775 849.416 804.628 851.5C801.91 853.005 798.98 854.093 795.938 854.729C796.221 852.773 796.528 850.817 796.835 848.861C800.069 848.095 803.113 846.684 805.785 844.712C810.309 841.8 814.597 838.538 818.609 834.955C812.256 839.551 805.195 846.103 797.142 847.541C797.567 845.184 798.039 842.638 798.535 840.211C798.549 840.086 798.549 839.959 798.535 839.834C807.84 837.477 814.122 830.218 821.23 824.326C821.348 824.326 821.23 824.043 821.112 824.137C814.027 829.558 807.509 835.756 798.842 838.396C799.598 834.932 800.377 831.467 801.204 828.002C809.405 824.988 816.657 819.856 822.222 813.131C822.222 813.013 822.222 812.871 822.057 812.966C816.163 818.759 809.202 823.361 801.558 826.517C802.314 823.1 803.093 819.683 803.92 816.242C807.663 814.78 811.287 813.031 814.759 811.009C818.121 808.774 820.983 805.869 823.167 802.478C823.188 802.462 823.206 802.441 823.218 802.417C823.229 802.392 823.235 802.366 823.234 802.339C823.233 802.312 823.226 802.286 823.213 802.263C823.199 802.239 823.18 802.22 823.158 802.205C823.135 802.191 823.109 802.182 823.082 802.18C823.056 802.178 823.029 802.182 823.004 802.193C822.979 802.203 822.957 802.22 822.94 802.241C822.924 802.261 822.912 802.286 822.907 802.313C818.184 809.053 811.099 811.174 804.227 814.71C804.912 811.504 805.526 808.299 806.092 805.07C813.72 800.875 822.033 796.986 826.355 788.926C826.355 788.926 826.355 788.784 826.237 788.926C821.655 796.326 813.626 799.508 806.352 803.538C806.352 802.949 806.565 802.383 806.636 801.818C807.108 798.801 807.557 795.808 807.982 792.814C812.374 790.957 816.574 788.676 820.522 786.003C823.491 784.4 826.09 782.192 828.15 779.522C828.175 779.484 828.184 779.438 828.175 779.394C828.166 779.35 828.14 779.311 828.102 779.286C828.065 779.261 828.019 779.252 827.974 779.261C827.93 779.27 827.891 779.296 827.866 779.333C823.781 785.202 814.807 788.572 808.171 791.518C808.596 788.478 809.021 785.461 809.469 782.421C816.814 777.99 825.481 775.515 829.992 767.525C830.133 767.29 829.779 767.054 829.637 767.289C824.914 774.596 816.696 776.858 809.658 781.006C809.942 779.145 810.202 777.259 810.485 775.374C818.444 772.475 827.677 765.828 831.857 758.663C831.892 758.586 831.898 758.499 831.874 758.417C831.85 758.336 831.797 758.266 831.725 758.22C831.654 758.175 831.568 758.156 831.484 758.168C831.4 758.18 831.323 758.222 831.267 758.286C826.114 765.399 818.964 770.829 810.721 773.889C811.193 770.848 811.689 767.832 812.233 764.791C812.286 764.712 812.326 764.624 812.351 764.532C815.955 763.149 819.368 761.311 822.505 759.064C826.347 756.964 829.633 753.984 832.093 750.367C832.33 749.967 831.668 749.566 831.432 749.99C827.89 756.283 819.624 760.502 812.54 762.906C812.752 761.798 812.941 760.69 813.154 759.583C813.484 757.933 813.815 756.283 814.169 754.657C817.003 752.701 820.616 751.758 823.45 749.684C825.885 747.835 828.153 745.777 830.228 743.532C830.44 743.32 830.11 742.99 829.897 743.179C827.115 745.938 823.978 748.315 820.569 750.249C818.609 751.31 816.365 751.899 814.476 753.03C815.019 750.344 815.586 747.657 816.105 744.946H816.318C816.398 744.97 816.484 744.969 816.564 744.943C816.644 744.918 816.714 744.87 816.767 744.805C820.64 743.839 823.592 740.516 826.213 737.734C826.213 737.734 826.213 737.569 826.213 737.734C823.582 740.536 820.354 742.711 816.767 744.098H816.507C816.908 741.906 817.31 739.691 817.688 737.499C817.755 737.493 817.821 737.474 817.881 737.442C817.94 737.41 817.993 737.366 818.035 737.313C818.077 737.26 818.107 737.199 818.125 737.133C818.142 737.068 818.146 737 818.136 736.933C820.174 735.504 822.071 733.886 823.804 732.102C823.922 731.984 823.804 731.772 823.592 731.889C821.859 733.416 819.967 734.751 817.948 735.873C818.708 731.316 819.22 726.721 819.483 722.108C819.483 721.684 818.869 721.684 818.821 722.108C818.42 726.563 817.782 730.97 817.003 735.354C814.7 732.661 812.756 729.682 811.217 726.492C811.217 726.455 811.202 726.419 811.176 726.392C811.149 726.366 811.113 726.351 811.075 726.351C811.038 726.351 811.002 726.366 810.975 726.392C810.949 726.419 810.934 726.455 810.934 726.492C811.654 728.422 812.606 730.258 813.768 731.96C814.626 733.611 815.621 735.188 816.743 736.674C816.318 739.031 815.846 741.388 815.373 743.744C812.35 743.593 809.494 742.315 807.369 740.164C805.244 738.013 804.005 735.144 803.896 732.125C803.896 731.701 803.211 731.701 803.235 732.125C803.442 735.23 804.623 738.19 806.612 740.586C808.801 742.787 811.673 744.183 814.759 744.546C814.193 747.256 813.602 749.967 813.012 752.677C810.688 751.171 808.464 749.517 806.352 747.728C803.35 744.902 800.542 741.878 797.945 738.677C797.662 738.371 797.166 738.819 797.473 739.125C799.887 742.219 802.498 745.156 805.289 747.916C807.588 750.079 810.105 751.998 812.799 753.643V754.068C812.726 754.153 812.686 754.262 812.686 754.374C812.686 754.486 812.726 754.595 812.799 754.68C812.233 757.273 811.642 759.865 811.099 762.458C811.112 762.615 811.112 762.773 811.099 762.929C805.053 760.172 796.009 755.364 795.206 748.364C795.206 747.704 794.143 747.893 794.285 748.576C796.079 756.495 804.817 760.007 810.816 764.343C810.225 767.266 809.682 770.212 809.186 773.158C805.252 771.93 801.561 770.032 798.276 767.549C795.3 765.192 791.073 762.34 789.75 758.663C789.75 758.546 789.514 758.663 789.561 758.663C790.813 762.317 794.592 764.815 797.355 767.313C800.6 770.546 804.565 772.969 808.926 774.384C808.89 774.515 808.89 774.653 808.926 774.784C808.619 776.646 808.336 778.532 808.029 780.394C800.684 779.828 790.412 774.266 786.657 768.727C789.315 772.669 793.076 775.743 797.473 777.565C800.689 779.473 804.239 780.753 807.934 781.336L806.376 791.754C803.188 790.575 799.811 790.01 796.67 788.737C792.102 786.813 788.247 783.519 785.641 779.31C785.452 779.05 785.051 779.31 785.216 779.522C790.293 787.582 797.614 789.963 806.187 792.979C805.762 795.831 805.313 798.683 804.841 801.511C797.756 800.168 788.758 795.902 785.192 789.727C784.933 789.279 784.224 789.727 784.484 790.104C786.947 793.807 790.445 796.708 794.544 798.447C797.652 800.392 801.083 801.765 804.675 802.501C804.664 802.595 804.664 802.69 804.675 802.784C803.967 806.885 803.164 810.939 802.314 814.992C794.473 813.036 789.42 807.238 783.705 801.818C783.327 801.44 782.689 802.006 783.091 802.407C788.9 808.087 794.001 814.073 801.983 816.194C801.251 819.494 800.495 822.77 799.622 826.07C792.686 823.906 786.559 819.72 782.028 814.05C781.721 813.649 781.178 814.168 781.461 814.568C786.064 820.444 792.261 824.878 799.315 827.342C798.441 830.854 797.544 834.413 796.646 837.878C789.994 836.564 784.121 832.707 780.28 827.13C780.28 827.012 779.973 827.13 780.068 827.319C783.799 832.527 789.514 838.537 796.316 839.103L795.442 842.45C795.276 843.133 795.087 843.817 794.899 844.524C789.762 843.211 784.943 840.879 780.729 837.665C780.611 837.665 780.469 837.665 780.587 837.854C784.689 841.421 789.526 844.044 794.757 845.537C794.19 847.659 793.576 849.827 792.986 852.042C791.716 851.384 790.398 850.825 789.042 850.369C786.73 849.408 784.554 848.148 782.571 846.622C782.359 846.622 782.146 846.787 782.335 846.928C784.056 848.386 785.933 849.651 787.932 850.699C789.585 851.312 791.167 852.113 792.773 852.82C790.412 861.588 788.31 870.921 789.443 879.335C789.703 881.197 792.844 881.692 793.316 879.712C794.268 873.64 794.851 867.517 795.064 861.376Z" fill="#747DED"/>
<path d="M786.117 802.527C782.078 822.16 783.33 855.58 757.353 860.954C750.268 862.368 743.585 857.536 739.523 851.974C734.186 844.715 732.91 829.325 733.005 820.534C733.005 813.463 735.366 805.78 736.216 798.756C737.043 791.167 737.728 783.531 738.578 775.942C741.766 748.602 756.077 725.67 780.307 712C782.196 720.98 786.471 728.498 790.226 737.218C791.983 741.169 793.451 745.241 794.618 749.403C796.602 756.71 794.193 764.087 792.422 771.063C789.777 781.315 788.289 792.086 786.117 802.527Z" fill="url(#paint7_linear_23_223)"/>
<path d="M752.888 861.543C753.053 859.893 753.266 858.243 753.478 856.594C756.66 856.249 759.721 855.185 762.429 853.482C766.832 851.03 770.818 847.896 774.237 844.197C774.426 844.008 774.095 843.702 773.906 843.867C770.45 846.96 766.599 849.583 762.452 851.668C759.734 853.172 756.804 854.26 753.762 854.897C754.045 852.94 754.352 850.984 754.659 849.028C757.893 848.263 760.937 846.852 763.61 844.88C768.134 841.968 772.421 838.705 776.433 835.123C770.08 839.718 763.019 846.271 754.966 847.708C755.391 845.351 755.864 842.806 756.36 840.378C756.373 840.253 756.373 840.127 756.36 840.001C765.664 837.644 771.946 830.385 779.054 824.493C779.172 824.493 779.054 824.21 778.936 824.305C771.852 829.725 765.334 835.924 756.667 838.564C757.422 835.099 758.202 831.634 759.028 828.17C767.229 825.155 774.481 820.023 780.046 813.298C780.046 813.18 780.046 813.039 779.881 813.133C773.987 818.927 767.027 823.529 759.382 826.685C760.138 823.268 760.917 819.85 761.744 816.409C765.487 814.948 769.112 813.198 772.584 811.177C775.945 808.942 778.808 806.037 780.991 802.645C781.013 802.629 781.03 802.608 781.042 802.584C781.054 802.56 781.059 802.533 781.059 802.506C781.058 802.48 781.05 802.453 781.037 802.43C781.024 802.407 781.005 802.387 780.982 802.373C780.959 802.358 780.933 802.35 780.907 802.347C780.88 802.345 780.853 802.35 780.828 802.36C780.803 802.371 780.782 802.387 780.765 802.408C780.748 802.429 780.736 802.454 780.731 802.48C776.008 809.221 768.923 811.342 762.051 814.877C762.736 811.672 763.35 808.466 763.917 805.237C771.545 801.042 779.857 797.154 784.179 789.093C784.179 789.093 784.179 788.952 784.061 789.093C779.479 796.494 771.45 799.675 764.176 803.706C764.176 803.116 764.389 802.551 764.46 801.985C764.932 798.968 765.381 795.975 765.806 792.982C770.198 791.125 774.398 788.843 778.346 786.17C781.316 784.567 783.914 782.359 785.974 779.689C785.999 779.652 786.008 779.606 785.999 779.562C785.99 779.517 785.964 779.478 785.927 779.453C785.889 779.428 785.843 779.419 785.799 779.428C785.754 779.437 785.715 779.463 785.69 779.501C781.605 785.369 772.631 788.739 765.995 791.686C766.42 788.645 766.845 785.628 767.294 782.588C774.638 778.157 783.305 775.682 787.816 767.693C787.957 767.457 787.603 767.221 787.462 767.457C782.738 774.763 774.52 777.026 767.483 781.174C767.766 779.312 768.026 777.427 768.309 775.541C776.268 772.642 785.501 765.996 789.681 758.831C789.716 758.754 789.722 758.666 789.698 758.585C789.674 758.504 789.621 758.434 789.549 758.388C789.478 758.342 789.392 758.324 789.308 758.336C789.224 758.348 789.147 758.39 789.091 758.454C783.938 765.567 776.789 770.996 768.545 774.056C769.018 771.016 769.514 767.999 770.057 764.959C770.11 764.879 770.15 764.792 770.175 764.699C773.779 763.316 777.192 761.479 780.33 759.232C784.171 757.132 787.457 754.151 789.918 750.535C790.154 750.134 789.493 749.733 789.256 750.158C785.714 756.45 777.448 760.669 770.364 763.073C770.576 761.966 770.765 760.858 770.978 759.75C771.308 758.1 771.639 756.45 771.993 754.824C774.827 752.868 778.44 751.925 781.274 749.851C783.709 748.002 785.977 745.944 788.052 743.7C788.264 743.488 787.934 743.158 787.721 743.346C784.94 746.105 781.803 748.483 778.393 750.417C776.433 751.477 774.189 752.067 772.3 753.198C772.843 750.511 773.41 747.824 773.93 745.114H774.142C774.223 745.137 774.308 745.136 774.388 745.111C774.468 745.086 774.538 745.038 774.591 744.973C778.464 744.006 781.416 740.683 784.037 737.902C784.037 737.902 784.037 737.737 784.037 737.902C781.407 740.703 778.178 742.878 774.591 744.265H774.331C774.733 742.074 775.134 739.858 775.512 737.666C775.579 737.661 775.645 737.641 775.705 737.609C775.764 737.577 775.817 737.533 775.859 737.48C775.901 737.427 775.932 737.366 775.949 737.301C775.967 737.236 775.971 737.167 775.961 737.101C777.998 735.672 779.896 734.054 781.628 732.269C781.747 732.151 781.628 731.939 781.416 732.057C779.683 733.583 777.791 734.919 775.772 736.04C776.532 731.483 777.044 726.888 777.307 722.276C777.307 721.852 776.693 721.852 776.646 722.276C776.244 726.73 775.606 731.138 774.827 735.522C772.525 732.828 770.58 729.85 769.041 726.66C769.041 726.622 769.026 726.586 769 726.56C768.973 726.533 768.937 726.518 768.9 726.518C768.862 726.518 768.826 726.533 768.799 726.56C768.773 726.586 768.758 726.622 768.758 726.66C769.479 728.589 770.43 730.425 771.592 732.128C772.45 733.779 773.446 735.356 774.567 736.841C774.142 739.198 773.67 741.555 773.198 743.912C770.174 743.76 767.318 742.483 765.193 740.332C763.068 738.18 761.829 735.312 761.72 732.293C761.72 731.868 761.036 731.868 761.059 732.293C761.266 735.397 762.447 738.358 764.436 740.754C766.625 742.955 769.497 744.351 772.584 744.713C772.017 747.424 771.426 750.134 770.836 752.844C768.513 751.338 766.288 749.685 764.176 747.895C761.175 745.069 758.366 742.046 755.769 738.845C755.486 738.538 754.99 738.986 755.297 739.292C757.711 742.387 760.322 745.323 763.114 748.084C765.412 750.246 767.929 752.165 770.624 753.811V754.235C770.55 754.32 770.51 754.429 770.51 754.541C770.51 754.654 770.55 754.762 770.624 754.848C770.057 757.44 769.466 760.033 768.923 762.625C768.937 762.782 768.937 762.94 768.923 763.097C762.878 760.339 753.833 755.531 753.03 748.531C753.03 747.871 751.967 748.06 752.109 748.744C753.904 756.663 762.641 760.174 768.64 764.511C768.049 767.433 767.506 770.38 767.01 773.326C763.077 772.097 759.386 770.2 756.1 767.716C753.124 765.359 748.897 762.508 747.574 758.831C747.574 758.713 747.338 758.831 747.386 758.831C748.637 762.484 752.416 764.982 755.179 767.481C758.424 770.714 762.389 773.137 766.751 774.551C766.714 774.682 766.714 774.821 766.751 774.952C766.444 776.814 766.16 778.699 765.853 780.561C758.509 779.996 748.236 774.433 744.481 768.895C747.139 772.836 750.901 775.91 755.297 777.733C758.513 779.641 762.063 780.92 765.759 781.504L764.2 791.921C761.012 790.743 757.635 790.177 754.494 788.904C749.926 786.981 746.072 783.686 743.465 779.477C743.276 779.218 742.875 779.477 743.04 779.689C748.118 787.75 755.439 790.13 764.011 793.147C763.586 795.999 763.137 798.85 762.665 801.679C755.58 800.335 746.583 796.069 743.017 789.894C742.757 789.447 742.048 789.894 742.308 790.271C744.772 793.975 748.27 796.876 752.369 798.615C755.476 800.559 758.907 801.932 762.5 802.669C762.488 802.762 762.488 802.857 762.5 802.951C761.791 807.052 760.988 811.106 760.138 815.16C752.298 813.204 747.244 807.406 741.529 801.985C741.151 801.608 740.513 802.174 740.915 802.574C746.724 808.254 751.825 814.241 759.808 816.362C759.075 819.661 758.32 822.938 757.446 826.237C750.51 824.073 744.383 819.887 739.852 814.217C739.545 813.817 739.002 814.335 739.285 814.736C743.889 820.612 750.085 825.045 757.139 827.51C756.265 831.022 755.368 834.58 754.47 838.045C747.819 836.732 741.945 832.875 738.105 827.298C738.105 827.18 737.798 827.298 737.892 827.486C741.623 832.695 747.338 838.705 754.14 839.271L753.266 842.617C753.101 843.301 752.912 843.984 752.723 844.691C747.586 843.379 742.767 841.046 738.553 837.833C738.435 837.833 738.294 837.833 738.412 838.021C742.513 841.588 747.351 844.212 752.581 845.705C752.014 847.826 751.4 849.994 750.81 852.21C749.54 851.552 748.222 850.992 746.866 850.536C744.554 849.576 742.378 848.316 740.395 846.789C740.183 846.789 739.97 846.954 740.159 847.095C741.88 848.554 743.757 849.819 745.756 850.866C747.409 851.479 748.992 852.281 750.597 852.988C748.236 861.755 746.134 871.088 747.268 879.502C747.527 881.364 750.668 881.859 751.14 879.879C752.092 873.808 752.675 867.685 752.888 861.543Z" fill="#747DED"/>
<path d="M807.392 871.746L806.306 891.897L804.582 923.243L801.772 974.764H731.893L729.082 923.243L727.358 891.897L726.272 871.746H807.392Z" fill="#95A8B5"/>
<path d="M806.306 891.897L806.07 895.927L805.857 900.122L804.582 923.243H729.082L727.807 900.122L727.594 895.927L727.358 891.897H806.306Z" fill="#A5B7C6"/>
<path d="M806.068 895.927L805.856 900.122H727.806L727.593 895.927H806.068Z" fill="#95A8B5"/>
</g>
<defs>
<radialGradient id="paint0_radial_23_223" cx="0" cy="0" r="1" gradientUnits="userSpaceOnUse" gradientTransform="translate(555.151 461.015) scale(30.5352 30.4742)">
<stop stop-color="#FFC8AF"/>
<stop offset="1" stop-color="#FFBB9C"/>
</radialGradient>
<radialGradient id="paint1_radial_23_223" cx="0" cy="0" r="1" gradientUnits="userSpaceOnUse" gradientTransform="translate(27384.1 12997.8) rotate(-12.1265) scale(1724.07 2168.61)">
<stop stop-color="#FFC8AF"/>
<stop offset="1" stop-color="#FFBB9C"/>
</radialGradient>
<radialGradient id="paint2_radial_23_223" cx="0" cy="0" r="1" gradientUnits="userSpaceOnUse" gradientTransform="translate(9394.15 11993.9) scale(329.466 292.976)">
<stop stop-color="#FFC8AF"/>
<stop offset="1" stop-color="#FFBB9C"/>
</radialGradient>
<radialGradient id="paint3_radial_23_223" cx="0" cy="0" r="1" gradientUnits="userSpaceOnUse" gradientTransform="translate(6376.23 11481.7) scale(264.232 252.542)">
<stop stop-color="#FFC8AF"/>
<stop offset="1" stop-color="#FFBB9C"/>
</radialGradient>
<radialGradient id="paint4_radial_23_223" cx="0" cy="0" r="1" gradientUnits="userSpaceOnUse" gradientTransform="translate(15208.1 6507.24) scale(2521.95 976.684)">
<stop stop-color="#FFC8AF"/>
<stop offset="1" stop-color="#FFBB9C"/>
</radialGradient>
<radialGradient id="paint5_radial_23_223" cx="0" cy="0" r="1" gradientUnits="userSpaceOnUse" gradientTransform="translate(39138.8 14081.6) scale(6583.3 2232.63)">
<stop stop-color="#FFC8AF"/>
<stop offset="1" stop-color="#FFBB9C"/>
</radialGradient>
<linearGradient id="paint6_linear_23_223" x1="802.04" y1="712.751" x2="802.182" y2="861.401" gradientUnits="userSpaceOnUse">
<stop stop-color="#4C54BF"/>
<stop offset="1" stop-color="#58479F"/>
</linearGradient>
<linearGradient id="paint7_linear_23_223" x1="759.864" y1="712.919" x2="760.006" y2="861.568" gradientUnits="userSpaceOnUse">
<stop stop-color="#4C54BF"/>
<stop offset="1" stop-color="#58479F"/>
</linearGradient>
</defs>
</svg>
