<svg width="80" height="80" viewBox="0 0 80 80" fill="none" xmlns="http://www.w3.org/2000/svg">
<rect width="80" height="80" rx="40" fill="#132C47"/>
<path d="M62.8571 20H17.1428C16.1324 20 15.1635 20.4214 14.449 21.1716C13.7346 21.9217 13.3333 22.9391 13.3333 24V56C13.3333 57.0609 13.7346 58.0783 14.449 58.8284C15.1635 59.5786 16.1324 60 17.1428 60H62.8571C63.8674 60 64.8364 59.5786 65.5508 58.8284C66.2652 58.0783 66.6666 57.0609 66.6666 56V24C66.6666 22.9391 66.2652 21.9217 65.5508 21.1716C64.8364 20.4214 63.8674 20 62.8571 20ZM58.6666 24L39.9999 37.56L21.3333 24H58.6666ZM17.1428 56V25.82L38.9142 41.64C39.2331 41.8723 39.6119 41.9967 39.9999 41.9967C40.388 41.9967 40.7668 41.8723 41.0856 41.64L62.8571 25.82V56H17.1428Z" fill="white"/>
</svg>
